<?xml version="1.0" encoding="UTF-8"?>
<svg version="1.1" xmlns="http://www.w3.org/2000/svg" width="232" height="133">
<path d="M0 0 C10.17143156 8.36595777 15.6056056 18.49549547 20.3125 30.6875 C21.67375 30.873125 21.67375 30.873125 23.0625 31.0625 C24.47931262 31.26983843 25.89595432 31.4783456 27.3125 31.6875 C28.26640625 31.8215625 29.2203125 31.955625 30.203125 32.09375 C39.44878817 33.48756857 46.6379523 36.39890079 54.3125 41.6875 C54.91191406 42.09484375 55.51132813 42.5021875 56.12890625 42.921875 C64.2200681 49.0762263 69.7664891 59.70870239 71.3125 69.6875 C71.82247896 77.50169379 71.56386182 84.17493134 69.3125 91.6875 C21.45237026 92.52941405 -26.39451252 92.84987502 -74.26166713 92.81606841 C-81.28529719 92.81164122 -88.30890989 92.8148951 -95.3325389 92.8196975 C-102.22478144 92.82421764 -109.11701634 92.82488912 -116.00925988 92.82225883 C-120.07323293 92.82070908 -124.1371939 92.82046939 -128.20116615 92.82379532 C-131.95715888 92.82666269 -135.71311765 92.82471989 -139.46910667 92.81890106 C-140.84425678 92.81757384 -142.21940973 92.81796695 -143.59455872 92.82016373 C-145.46032106 92.82287276 -147.32608963 92.81888259 -149.19184875 92.81448364 C-150.75756355 92.8139181 -150.75756355 92.8139181 -152.35490894 92.81334114 C-154.6875 92.6875 -154.6875 92.6875 -155.6875 91.6875 C-156.73147729 79.38225954 -154.62377502 70.28647078 -146.7421875 60.73046875 C-140.82750922 54.84952437 -133.12620409 50.91893422 -124.75 50.5625 C-124.069375 50.60375 -123.38875 50.645 -122.6875 50.6875 C-122.914375 49.73875 -123.14125 48.79 -123.375 47.8125 C-124.26941394 41.51327039 -121.82584424 35.73651963 -118.8125 30.3125 C-115.03267424 25.64330347 -110.60349247 22.1248362 -104.6875 20.6875 C-97.37923829 20.00465737 -91.1641124 20.07264657 -84.6875 23.6875 C-84.03394531 22.40166016 -84.03394531 22.40166016 -83.3671875 21.08984375 C-75.44565865 5.8811942 -65.43496922 -3.89806951 -48.6875 -9.3125 C-31.39832982 -13.727248 -14.36828311 -10.60113662 0 0 Z " fill="#EF7F1F" transform="translate(158.6875,12.3125)"/>
<path d="M0 0 C13.55153123 -0.45171771 24.79177478 2.27631212 36 10 C36.59941406 10.40734375 37.19882813 10.8146875 37.81640625 11.234375 C45.90641495 17.38784918 51.45624379 28.02172122 53 38 C53.48459047 45.49552035 53.41289816 51.76130552 51 59 C27.9 59 4.8 59 -19 59 C-18.67 57.02 -18.34 55.04 -18 53 C-17.43708162 48.10261011 -17.1632031 45.09248484 -20.25 41.0625 C-25.2859598 37.28553015 -28.9049918 36.69868989 -35.16503906 36.68115234 C-35.9849231 36.67110672 -36.80480713 36.6610611 -37.64953613 36.65071106 C-40.35489207 36.61986273 -43.06014897 36.60283936 -45.765625 36.5859375 C-47.6432175 36.56722718 -49.52080158 36.54765387 -51.39837646 36.5272522 C-56.33682289 36.47591066 -61.27529659 36.43629572 -66.21386719 36.39910889 C-71.25462602 36.35908195 -76.29527123 36.30798362 -81.3359375 36.2578125 C-91.22387854 36.16102925 -101.1118837 36.07663209 -111 36 C-111.33 34.68 -111.66 33.36 -112 32 C-98.3737918 31.39210015 -84.7635691 30.9366338 -71.12340546 30.8697052 C-69.10976936 30.8593368 -67.09618708 30.84545417 -65.08258057 30.83044434 C-63.73083505 30.82054409 -62.37908945 30.81065641 -61.02734375 30.80078125 C-60.35837948 30.79586922 -59.68941521 30.79095718 -59.00017929 30.7858963 C-55.56172851 30.76233444 -52.12359514 30.74801262 -48.68505859 30.74951172 C-45.93301137 30.75014861 -43.18163173 30.73766298 -40.42971802 30.71051025 C-37.87992789 30.68549158 -35.32986918 30.67858283 -32.77999878 30.69329834 C-23.70636722 30.56416734 -18.02367933 28.48718875 -11.1875 22.5625 C-6.95335412 17.60250054 -4.34684969 12.79905743 -2.25 6.625 C-1.82203125 5.37976562 -1.3940625 4.13453125 -0.953125 2.8515625 C-0.48132813 1.44003906 -0.48132813 1.44003906 0 0 Z " fill="#F5AA3F" transform="translate(177,44)"/>
<path d="M0 0 C1.32 0 2.64 0 4 0 C3.55971069 3.59569602 3.02725857 6.91341395 1.9375 10.375 C0.82460736 14.67818487 0.17312576 18.59276029 1 23 C3.69587269 26.42448693 6.78809572 29.68908116 11.26831055 30.31884766 C12.13238525 30.35026855 12.99645996 30.38168945 13.88671875 30.4140625 C14.82451172 30.45273438 15.76230469 30.49140625 16.72851562 30.53125 C17.70498047 30.5621875 18.68144531 30.593125 19.6875 30.625 C20.67556641 30.66367188 21.66363281 30.70234375 22.68164062 30.7421875 C25.12090707 30.83645867 27.56016595 30.92206218 30 31 C30 32.32 30 33.64 30 35 C28.98015015 35.05160278 28.98015015 35.05160278 27.93969727 35.10424805 C24.81222107 35.27564937 21.68786926 35.48133145 18.5625 35.6875 C17.49322266 35.74099609 16.42394531 35.79449219 15.32226562 35.84960938 C6.65698987 36.4590936 0.75086919 38.74924671 -5.8125 44.4375 C-9.71550513 49.00959173 -12.34179668 53.19628839 -14 59 C-15.65 59 -17.3 59 -19 59 C-18.835 58.195625 -18.67 57.39125 -18.5 56.5625 C-17.59954152 50.28886819 -17.59954152 50.28886819 -18 44 C-20.55811446 40.66023946 -23.08594395 38.49138275 -27 37 C-29.754008 36.79102993 -32.4101986 36.68887004 -35.16503906 36.68115234 C-35.9849231 36.67110672 -36.80480713 36.6610611 -37.64953613 36.65071106 C-40.35489207 36.61986273 -43.06014897 36.60283936 -45.765625 36.5859375 C-47.6432175 36.56722718 -49.52080158 36.54765387 -51.39837646 36.5272522 C-56.33682289 36.47591066 -61.27529659 36.43629572 -66.21386719 36.39910889 C-71.25462602 36.35908195 -76.29527123 36.30798362 -81.3359375 36.2578125 C-91.22387854 36.16102925 -101.1118837 36.07663209 -111 36 C-111.33 34.68 -111.66 33.36 -112 32 C-98.3737918 31.39210015 -84.7635691 30.9366338 -71.12340546 30.8697052 C-69.10976936 30.8593368 -67.09618708 30.84545417 -65.08258057 30.83044434 C-63.73083505 30.82054409 -62.37908945 30.81065641 -61.02734375 30.80078125 C-60.35837948 30.79586922 -59.68941521 30.79095718 -59.00017929 30.7858963 C-55.56172851 30.76233444 -52.12359514 30.74801262 -48.68505859 30.74951172 C-45.93301137 30.75014861 -43.18163173 30.73766298 -40.42971802 30.71051025 C-37.87992789 30.68549158 -35.32986918 30.67858283 -32.77999878 30.69329834 C-23.70636722 30.56416734 -18.02367933 28.48718875 -11.1875 22.5625 C-6.95335412 17.60250054 -4.34684969 12.79905743 -2.25 6.625 C-1.82203125 5.37976562 -1.3940625 4.13453125 -0.953125 2.8515625 C-0.48132813 1.44003906 -0.48132813 1.44003906 0 0 Z " fill="#FEF7F2" transform="translate(177,44)"/>
<path d="M0 0 C2.0625 -0.061875 4.125 -0.12375 6.25 -0.1875 C7.99023438 -0.23970703 7.99023438 -0.23970703 9.765625 -0.29296875 C13.25414263 0.02302017 14.62112734 0.46446987 17 3 C17.46913089 7.37855495 17.46943529 9.29584707 15 13 C15.495 13.61875 15.99 14.2375 16.5 14.875 C18 17 18 17 18 19 C14.6875 19.25 14.6875 19.25 11 19 C9.0625 17 9.0625 17 8 15 C7.34 16.32 6.68 17.64 6 19 C4.02 19 2.04 19 0 19 C0 12.73 0 6.46 0 0 Z M7 6 C7 6.99 7 7.98 7 9 C8.32 8.67 9.64 8.34 11 8 C11 7.34 11 6.68 11 6 C9.68 6 8.36 6 7 6 Z " fill="#353536" transform="translate(186,111)"/>
<path d="M0 0 C11.9162669 -0.60183166 11.9162669 -0.60183166 14.94140625 1.078125 C16.25 2.4375 16.25 2.4375 18 5 C18.33 5.33 18.66 5.66 19 6 C19.42086328 10.62949609 18.86788177 13.31272343 16 17 C11.15913955 20.19056711 5.57003881 19.1210878 0 19 C0 12.73 0 6.46 0 0 Z M6 5 C6 7.64 6 10.28 6 13 C7.65 12.67 9.3 12.34 11 12 C11.77242269 10.16299211 11.77242269 10.16299211 12 8 C10.83333333 6.16666667 10.83333333 6.16666667 9 5 C8.01 5 7.02 5 6 5 Z " fill="#363637" transform="translate(94,111)"/>
<path d="M0 0 C5.57894737 3.15789474 5.57894737 3.15789474 7 6 C7.51968957 10.4131016 7.85380637 13.86159151 5.125 17.5 C1.20866784 20.26446976 -2.28399725 20.74233377 -7 20 C-9.99559257 18.70988135 -10.81502626 17.67659284 -13 15 C-13.79690921 11.82956265 -13.78723288 9.17191643 -13 6 C-9.08606917 1.05608737 -6.27104539 -0.60298513 0 0 Z M-5 6 C-6.19838209 8.32854463 -6.19838209 8.32854463 -7 11 C-6.01 12.485 -6.01 12.485 -5 14 C-2.45792029 14.33343551 -2.45792029 14.33343551 0 14 C1.27003323 12.94689723 1.27003323 12.94689723 1.1875 10.5625 C1.26839983 7.83265325 1.26839983 7.83265325 -1 6 C-2.32 6 -3.64 6 -5 6 Z " fill="#343435" transform="translate(57,110)"/>
<path d="M0 0 C2.875 2.3125 2.875 2.3125 5 5 C5 6.32 5 7.64 5 9 C-0.53846154 9.36923077 -0.53846154 9.36923077 -2.875 7.5 C-3.24625 7.005 -3.6175 6.51 -4 6 C-4.99 6.33 -5.98 6.66 -7 7 C-7.33 8.98 -7.66 10.96 -8 13 C-4.18186553 12.72459296 -4.18186553 12.72459296 -1 11 C0.99958364 10.95919217 3.00045254 10.95745644 5 11 C4.45440934 14.81913463 3.0538034 16.66946583 0 19 C-4.12694984 20.14637496 -6.28602638 20.26942401 -10.3125 18.75 C-13 17 -13 17 -15 14 C-15.60133651 10.91236832 -15.63305837 8.08413054 -15 5 C-11.10429418 -0.23523873 -6.13435397 -1.71761911 0 0 Z " fill="#323233" transform="translate(15,111)"/>
<path d="M0 0 C5.28 0 10.56 0 16 0 C16 1.65 16 3.3 16 5 C12.7 5 9.4 5 6 5 C6 5.66 6 6.32 6 7 C8.97 7 11.94 7 15 7 C15 8.65 15 10.3 15 12 C12.03 12 9.06 12 6 12 C6 12.66 6 13.32 6 14 C9.63 14 13.26 14 17 14 C16.67 15.65 16.34 17.3 16 19 C10.72 19 5.44 19 0 19 C0 12.73 0 6.46 0 0 Z " fill="#383839" transform="translate(209,111)"/>
<path d="M0 0 C2.31 0 4.62 0 7 0 C7.33 4.29 7.66 8.58 8 13 C8.99 13 9.98 13 11 13 C11.33 8.71 11.66 4.42 12 0 C13.98 0 15.96 0 18 0 C19.71216126 1.71216126 19.17191224 3.91807056 19.1875 6.25 C19.20167969 7.20390625 19.21585938 8.1578125 19.23046875 9.140625 C18.89128135 13.34884831 18.04575506 16.10363852 14.8125 18.875 C11.08948933 20.36420427 8.85546991 19.98139234 5 19 C2.83203125 17.95703125 2.83203125 17.95703125 1 16 C0.54281872 13.15433959 0.30478554 10.66383827 0.25 7.8125 C0.22035156 7.06291016 0.19070312 6.31332031 0.16015625 5.54101562 C0.0895921 3.69458693 0.04251524 1.84728739 0 0 Z " fill="#343435" transform="translate(69,111)"/>
<path d="M0 0 C1.98 0 3.96 0 6 0 C7.33934716 2.95564708 8.67044247 5.9149378 10 8.875 C10.3815625 9.71675781 10.763125 10.55851562 11.15625 11.42578125 C11.5171875 12.23144531 11.878125 13.03710938 12.25 13.8671875 C12.58515625 14.61081543 12.9203125 15.35444336 13.265625 16.12060547 C14 18 14 18 14 20 C11.69 20 9.38 20 7 20 C6.67 19.01 6.34 18.02 6 17 C1.66770285 17.8604139 1.66770285 17.8604139 -2 20 C-3.99958364 20.04080783 -6.00045254 20.04254356 -8 20 C-5.83836487 13.06001352 -3.1063786 6.56882431 0 0 Z M2 10 C2 10.66 2 11.32 2 12 C2.66 12 3.32 12 4 12 C4 11.34 4 10.68 4 10 C3.34 10 2.68 10 2 10 Z " fill="#353535" transform="translate(167,110)"/>
<path d="M0 0 C5.28 0 10.56 0 16 0 C16 1.65 16 3.3 16 5 C13.03 5 10.06 5 7 5 C7 5.66 7 6.32 7 7 C9.64 7 12.28 7 15 7 C15 8.98 15 10.96 15 13 C12.36 13 9.72 13 7 13 C7 14.98 7 16.96 7 19 C4.69 19 2.38 19 0 19 C0 12.73 0 6.46 0 0 Z " fill="#373738" transform="translate(118,111)"/>
<path d="M0 0 C1.98 0 3.96 0 6 0 C6 4.62 6 9.24 6 14 C8.97 14 11.94 14 15 14 C15 15.65 15 17.3 15 19 C10.05 19 5.1 19 0 19 C0 12.73 0 6.46 0 0 Z " fill="#3C3C3E" transform="translate(140,111)"/>
<path d="M0 0 C1.98 0 3.96 0 6 0 C6 4.62 6 9.24 6 14 C8.97 14 11.94 14 15 14 C15 15.65 15 17.3 15 19 C10.05 19 5.1 19 0 19 C0 12.73 0 6.46 0 0 Z " fill="#3B3B3C" transform="translate(25,111)"/>
<path d="M0 0 C0.66 0.33 1.32 0.66 2 1 C-1.63 4.63 -5.26 8.26 -9 12 C-9 7.8407692 -6.75316432 5.85455565 -4 3 C-1.6875 1.125 -1.6875 1.125 0 0 Z " fill="#964F11" transform="translate(18,68)"/>
<path d="M0 0 C0.66 0.33 1.32 0.66 2 1 C-0.97 3.97 -3.94 6.94 -7 10 C-7.66 9.67 -8.32 9.34 -9 9 C-6.31941902 5.42589203 -3.57410797 2.68058098 0 0 Z " fill="#9D5512" transform="translate(92,12)"/>
<path d="M0 0 C-1.28519565 2.86697492 -2.57129254 4.97607712 -5 7 C-5.66 7 -6.32 7 -7 7 C-3.86206897 0 -3.86206897 0 0 0 Z " fill="#965011" transform="translate(47,37)"/>
<path d="M0 0 C0.99 0 1.98 0 3 0 C3 1.65 3 3.3 3 5 C1.68 4.67 0.36 4.34 -1 4 C-0.67 2.68 -0.34 1.36 0 0 Z " fill="#272729" transform="translate(229,111)"/>
</svg>
